<svg xmlns="http://www.w3.org/2000/svg" viewBox="0 0 800 500"><path fill="#74ACDF" d="M0 0h800v500H0z"/><path fill="#FFF" d="M0 166.7h800v166.6H0z"/><circle fill="#F6B40E" cx="400" cy="250" r="60"><path fill="#85340A" d="M400 203.7c-3.3 0-6.4.3-9.4.9 1.4 1.2 2.2 2.9 2.2 4.8 0 3.5-2.8 6.3-6.3 6.3-2.1 0-4-1-5.1-2.6 1.1 4.3 3 8.1 5.7 11.5 2.2-1.5 4.9-2.4 7.9-2.4 3 0 5.7.9 7.9 2.4 2.7-3.3 4.6-7.2 5.7-11.5-1.1 1.6-3 2.6-5.1 2.6-3.5 0-6.3-2.8-6.3-6.3 0-1.9.8-3.6 2.2-4.8-3 -.6-6.1-.9-9.4-.9z"/><path fill="#85340A" d="M381.9 219.3c-5.3 3.4-9.5 8.4-11.9 14.3 1.3-.4 2.7-.7 4.1-.7 6.7 0 12.2 5.5 12.2 12.2 0 1.3-.2 2.5-.6 3.7 3.6-.5 7.1-1.7 10.3-3.5 3.2 1.8 6.7 3 10.3 3.5-.4-1.2-.6-2.4-.6-3.7 0-6.7 5.5-12.2 12.2-12.2 1.4 0 2.8.3 4.1.7-2.4-5.9-6.6-10.9-11.9-14.3-3.2 2-6.9 3.1-10.9 3.1-4 0-7.7-1.1-10.9-3.1z"/><path fill="#85340A" d="M369.9 254.1c0 8.2 3.5 15.6 9.1 20.7 1.7-2.1 4.2-3.4 7.1-3.4 5.1 0 9.2 4.1 9.2 9.2 0 .8-.1 1.6-.3 2.3 1.7.4 3.5.6 5.3.6 1.8 0 3.6-.2 5.3-.6-.2-.7-.3-1.5-.3-2.3 0-5.1 4.1-9.2 9.2-9.2 2.9 0 5.4 1.3 7.1 3.4 5.6-5.1 9.1-12.5 9.1-20.7 0-7.7-3.1-14.6-8.1-19.7-2.2.8-4.6 1.3-7.1 1.3-9.8 0-17.9-7.3-19.1-16.8-.4 0-.8-.1-1.2-.1-.4 0-.8 0-1.2.1-1.2 9.5-9.3 16.8-19.1 16.8-2.5 0-4.9-.5-7.1-1.3-5 5.1-8.1 12-8.1 19.7z"/></circle></svg>
