<?xml version="1.0" encoding="UTF-8"?>
<svg xmlns="http://www.w3.org/2000/svg" width="810" height="540" viewBox="0 0 810 540">
  <!-- Fondo azul -->
  <rect width="810" height="540" fill="#039"/>
  <!-- Círculo de estrellas -->
  <g fill="#fc0">
    <!-- 12 estrellas en círculo -->
    <path d="M405,96.5l13.1,40.3h42.4l-34.3,24.9l13.1,40.3L405,177.1l-34.3,24.9l13.1-40.3l-34.3-24.9h42.4z"/>
    <path d="M405,96.5l13.1,40.3h42.4l-34.3,24.9l13.1,40.3L405,177.1l-34.3,24.9l13.1-40.3l-34.3-24.9h42.4z" transform="rotate(30 405 270)"/>
    <path d="M405,96.5l13.1,40.3h42.4l-34.3,24.9l13.1,40.3L405,177.1l-34.3,24.9l13.1-40.3l-34.3-24.9h42.4z" transform="rotate(60 405 270)"/>
    <path d="M405,96.5l13.1,40.3h42.4l-34.3,24.9l13.1,40.3L405,177.1l-34.3,24.9l13.1-40.3l-34.3-24.9h42.4z" transform="rotate(90 405 270)"/>
    <path d="M405,96.5l13.1,40.3h42.4l-34.3,24.9l13.1,40.3L405,177.1l-34.3,24.9l13.1-40.3l-34.3-24.9h42.4z" transform="rotate(120 405 270)"/>
    <path d="M405,96.5l13.1,40.3h42.4l-34.3,24.9l13.1,40.3L405,177.1l-34.3,24.9l13.1-40.3l-34.3-24.9h42.4z" transform="rotate(150 405 270)"/>
    <path d="M405,96.5l13.1,40.3h42.4l-34.3,24.9l13.1,40.3L405,177.1l-34.3,24.9l13.1-40.3l-34.3-24.9h42.4z" transform="rotate(180 405 270)"/>
    <path d="M405,96.5l13.1,40.3h42.4l-34.3,24.9l13.1,40.3L405,177.1l-34.3,24.9l13.1-40.3l-34.3-24.9h42.4z" transform="rotate(210 405 270)"/>
    <path d="M405,96.5l13.1,40.3h42.4l-34.3,24.9l13.1,40.3L405,177.1l-34.3,24.9l13.1-40.3l-34.3-24.9h42.4z" transform="rotate(240 405 270)"/>
    <path d="M405,96.5l13.1,40.3h42.4l-34.3,24.9l13.1,40.3L405,177.1l-34.3,24.9l13.1-40.3l-34.3-24.9h42.4z" transform="rotate(270 405 270)"/>
    <path d="M405,96.5l13.1,40.3h42.4l-34.3,24.9l13.1,40.3L405,177.1l-34.3,24.9l13.1-40.3l-34.3-24.9h42.4z" transform="rotate(300 405 270)"/>
    <path d="M405,96.5l13.1,40.3h42.4l-34.3,24.9l13.1,40.3L405,177.1l-34.3,24.9l13.1-40.3l-34.3-24.9h42.4z" transform="rotate(330 405 270)"/>
  </g>
</svg>
