<svg xmlns="http://www.w3.org/2000/svg" viewBox="0 0 800 500"><rect width="800" height="500" fill="#fff"/><g fill="#bd3d44"><rect width="800" height="38.5"/><rect width="800" height="38.5" y="76.9"/><rect width="800" height="38.5" y="153.8"/><rect width="800" height="38.5" y="230.8"/><rect width="800" height="38.5" y="307.7"/><rect width="800" height="38.5" y="384.6"/><rect width="800" height="38.5" y="461.5"/></g><rect width="346.2" height="269.2" fill="#192f5d"/><g fill="#fff"><path d="M43.3 38.5l3.5 10.8h11.3l-9.2 6.7 3.5 10.8-9.2-6.7-9.2 6.7 3.5-10.8-9.2-6.7h11.3zM101.8 38.5l3.5 10.8h11.3l-9.2 6.7 3.5 10.8-9.2-6.7-9.2 6.7 3.5-10.8-9.2-6.7h11.3zM160.3 38.5l3.5 10.8h11.3l-9.2 6.7 3.5 10.8-9.2-6.7-9.2 6.7 3.5-10.8-9.2-6.7h11.3zM218.8 38.5l3.5 10.8h11.3l-9.2 6.7 3.5 10.8-9.2-6.7-9.2 6.7 3.5-10.8-9.2-6.7h11.3zM277.3 38.5l3.5 10.8h11.3l-9.2 6.7 3.5 10.8-9.2-6.7-9.2 6.7 3.5-10.8-9.2-6.7h11.3zM72.5 76.9l3.5 10.8h11.3l-9.2 6.7 3.5 10.8-9.2-6.7-9.2 6.7 3.5-10.8-9.2-6.7h11.3zM131 76.9l3.5 10.8h11.3l-9.2 6.7 3.5 10.8-9.2-6.7-9.2 6.7 3.5-10.8-9.2-6.7h11.3zM189.5 76.9l3.5 10.8h11.3l-9.2 6.7 3.5 10.8-9.2-6.7-9.2 6.7 3.5-10.8-9.2-6.7h11.3zM248 76.9l3.5 10.8h11.3l-9.2 6.7 3.5 10.8-9.2-6.7-9.2 6.7 3.5-10.8-9.2-6.7h11.3zM306.5 76.9l3.5 10.8h11.3l-9.2 6.7 3.5 10.8-9.2-6.7-9.2 6.7 3.5-10.8-9.2-6.7h11.3zM43.3 115.4l3.5 10.8h11.3l-9.2 6.7 3.5 10.8-9.2-6.7-9.2 6.7 3.5-10.8-9.2-6.7h11.3zM101.8 115.4l3.5 10.8h11.3l-9.2 6.7 3.5 10.8-9.2-6.7-9.2 6.7 3.5-10.8-9.2-6.7h11.3zM160.3 115.4l3.5 10.8h11.3l-9.2 6.7 3.5 10.8-9.2-6.7-9.2 6.7 3.5-10.8-9.2-6.7h11.3zM218.8 115.4l3.5 10.8h11.3l-9.2 6.7 3.5 10.8-9.2-6.7-9.2 6.7 3.5-10.8-9.2-6.7h11.3zM277.3 115.4l3.5 10.8h11.3l-9.2 6.7 3.5 10.8-9.2-6.7-9.2 6.7 3.5-10.8-9.2-6.7h11.3zM72.5 153.8l3.5 10.8h11.3l-9.2 6.7 3.5 10.8-9.2-6.7-9.2 6.7 3.5-10.8-9.2-6.7h11.3zM131 153.8l3.5 10.8h11.3l-9.2 6.7 3.5 10.8-9.2-6.7-9.2 6.7 3.5-10.8-9.2-6.7h11.3zM189.5 153.8l3.5 10.8h11.3l-9.2 6.7 3.5 10.8-9.2-6.7-9.2 6.7 3.5-10.8-9.2-6.7h11.3zM248 153.8l3.5 10.8h11.3l-9.2 6.7 3.5 10.8-9.2-6.7-9.2 6.7 3.5-10.8-9.2-6.7h11.3zM306.5 153.8l3.5 10.8h11.3l-9.2 6.7 3.5 10.8-9.2-6.7-9.2 6.7 3.5-10.8-9.2-6.7h11.3zM43.3 192.3l3.5 10.8h11.3l-9.2 6.7 3.5 10.8-9.2-6.7-9.2 6.7 3.5-10.8-9.2-6.7h11.3zM101.8 192.3l3.5 10.8h11.3l-9.2 6.7 3.5 10.8-9.2-6.7-9.2 6.7 3.5-10.8-9.2-6.7h11.3zM160.3 192.3l3.5 10.8h11.3l-9.2 6.7 3.5 10.8-9.2-6.7-9.2 6.7 3.5-10.8-9.2-6.7h11.3zM218.8 192.3l3.5 10.8h11.3l-9.2 6.7 3.5 10.8-9.2-6.7-9.2 6.7 3.5-10.8-9.2-6.7h11.3zM277.3 192.3l3.5 10.8h11.3l-9.2 6.7 3.5 10.8-9.2-6.7-9.2 6.7 3.5-10.8-9.2-6.7h11.3zM72.5 230.8l3.5 10.8h11.3l-9.2 6.7 3.5 10.8-9.2-6.7-9.2 6.7 3.5-10.8-9.2-6.7h11.3zM131 230.8l3.5 10.8h11.3l-9.2 6.7 3.5 10.8-9.2-6.7-9.2 6.7 3.5-10.8-9.2-6.7h11.3zM189.5 230.8l3.5 10.8h11.3l-9.2 6.7 3.5 10.8-9.2-6.7-9.2 6.7 3.5-10.8-9.2-6.7h11.3zM248 230.8l3.5 10.8h11.3l-9.2 6.7 3.5 10.8-9.2-6.7-9.2 6.7 3.5-10.8-9.2-6.7h11.3zM306.5 230.8l3.5 10.8h11.3l-9.2 6.7 3.5 10.8-9.2-6.7-9.2 6.7 3.5-10.8-9.2-6.7h11.3z"/></g></svg>
